<?xml version="1.0" standalone="no"?>
<svg version="1.0" xmlns="http://www.w3.org/2000/svg"
 width="1800.000000pt" height="1578.000000pt" viewBox="0 0 1800.000000 1578.000000"
 preserveAspectRatio="xMidYMid meet">
<g transform="translate(0.000000,1578.000000) scale(0.100000,-0.100000)"
fill="#000000" stroke="none">
<path d="M14747 12903 c-15 -17 -136 -197 -147 -218 -6 -12 -48 -74 -95 -140
-45 -63 -404 -604 -450 -678 -5 -9 -40 -60 -76 -114 -36 -54 -91 -136 -121
-183 -30 -47 -63 -98 -74 -115 -10 -16 -21 -34 -24 -40 -3 -5 -48 -75 -100
-155 -116 -175 -132 -200 -145 -222 -28 -49 -95 -154 -154 -242 -89 -132 -189
-288 -198 -306 -4 -8 -25 -42 -47 -75 -49 -74 -58 -87 -93 -145 -15 -25 -56
-90 -92 -145 -73 -110 -87 -133 -97 -155 -4 -8 -53 -85 -109 -170 -56 -85
-135 -206 -176 -267 -40 -62 -78 -113 -85 -113 -7 0 -23 17 -35 38 -12 20 -52
81 -88 135 -36 54 -72 108 -79 120 -7 12 -78 117 -157 232 -79 116 -239 352
-356 525 -212 313 -269 396 -385 566 -34 49 -108 159 -166 244 -57 85 -126
187 -153 225 -43 62 -131 193 -391 577 l-79 118 -4005 0 c-2203 0 -4042 3
-4087 7 -71 5 -83 4 -89 -11 -8 -22 -15 -10 135 -241 35 -55 83 -129 106 -165
23 -36 57 -90 77 -120 19 -30 61 -95 94 -145 64 -98 79 -122 91 -145 10 -19
65 -103 162 -250 78 -117 95 -144 108 -170 4 -8 45 -74 92 -147 111 -171 193
-300 206 -321 6 -9 30 -47 55 -84 l45 -68 2670 0 c1469 0 2679 -3 2690 -6 11
-3 46 -45 78 -92 33 -48 97 -143 145 -212 47 -69 173 -255 281 -415 292 -434
404 -599 592 -870 49 -71 119 -175 156 -230 36 -55 90 -136 120 -180 90 -132
327 -485 338 -503 6 -9 33 -48 60 -86 68 -96 108 -154 120 -174 6 -9 22 -33
36 -52 14 -19 88 -127 164 -240 76 -113 150 -221 164 -240 14 -19 31 -43 36
-52 9 -15 35 -54 123 -184 20 -30 42 -63 47 -72 6 -10 21 -33 35 -52 14 -19
30 -42 35 -52 16 -27 136 -201 153 -221 8 -9 20 -26 26 -37 6 -10 34 -52 61
-92 77 -110 236 -344 360 -528 61 -91 150 -221 198 -290 112 -163 287 -420
400 -590 49 -74 93 -137 96 -140 6 -5 105 -148 141 -205 8 -13 51 -77 95 -142
44 -65 83 -125 87 -133 5 -8 26 -40 48 -70 22 -30 89 -127 147 -215 59 -88
110 -162 113 -165 3 -3 42 -59 86 -125 44 -66 109 -160 144 -210 71 -101 140
-201 155 -227 5 -10 34 -52 64 -95 30 -43 113 -166 185 -273 73 -107 148 -217
167 -245 19 -27 68 -97 108 -154 40 -57 82 -117 94 -133 44 -60 128 -89 195
-67 39 12 134 85 224 172 68 64 260 278 329 365 81 101 295 397 333 460 28 46
59 95 68 110 10 15 21 34 24 42 4 8 13 22 20 30 34 41 284 545 284 574 0 6 4
16 9 22 8 9 20 35 71 165 l23 57 -79 118 c-43 65 -81 123 -84 128 -3 6 -27 44
-55 84 -27 41 -57 85 -65 98 -8 13 -46 69 -85 125 -38 56 -108 159 -155 228
-47 69 -124 181 -170 249 -47 67 -90 130 -95 140 -6 9 -28 44 -51 77 -22 33
-89 132 -149 220 -59 88 -121 176 -136 196 -16 20 -29 40 -29 44 0 4 -13 24
-30 45 -16 21 -30 40 -30 43 0 6 -33 55 -141 210 -30 43 -61 89 -69 102 -8 13
-39 59 -69 102 -57 82 -137 198 -306 448 -114 168 -165 243 -248 360 -31 44
-93 134 -138 200 -45 66 -86 122 -91 123 -20 9 -4 61 33 107 9 11 44 61 78
110 33 50 74 108 90 130 16 22 60 86 98 143 37 57 82 122 99 145 17 23 66 94
109 157 43 63 101 147 127 185 27 39 87 126 134 195 47 69 121 177 165 240 45
63 96 138 115 165 19 28 79 115 134 195 55 80 121 174 145 210 25 36 65 92 88
125 24 33 70 98 102 145 32 47 78 111 101 143 24 31 44 59 44 62 0 3 15 27 33
53 18 26 60 85 92 132 32 47 74 105 92 130 18 25 54 77 80 115 26 39 71 103
100 142 29 40 53 75 53 78 0 3 36 53 80 112 44 58 80 110 80 115 0 6 -19 44
-42 86 -23 43 -53 98 -67 125 -14 26 -28 47 -32 47 -4 0 -212 -317 -254 -388
-14 -23 -99 -157 -171 -270 -32 -51 -63 -100 -69 -109 -5 -9 -41 -64 -80 -122
-83 -127 -85 -129 -109 -172 -10 -19 -56 -90 -101 -159 -81 -123 -195 -307
-195 -315 0 -2 -33 -53 -73 -113 -41 -60 -77 -116 -81 -123 -3 -8 -15 -27 -26
-44 -11 -16 -23 -37 -27 -45 -5 -8 -47 -75 -95 -147 -49 -73 -88 -135 -88
-138 0 -4 -27 -45 -168 -250 -19 -27 -38 -59 -44 -70 -13 -29 -26 -49 -103
-165 -39 -58 -74 -113 -78 -122 -3 -10 -50 -84 -104 -165 -54 -81 -106 -164
-117 -183 -10 -19 -51 -84 -91 -145 -40 -60 -83 -130 -95 -153 -13 -24 -29
-46 -37 -49 -14 -5 -62 41 -63 60 0 4 -13 26 -30 49 -16 22 -30 45 -30 50 0 9
100 158 128 191 8 9 20 26 26 37 6 10 34 52 62 92 101 146 144 209 144 213 0
2 14 24 30 47 17 24 65 95 107 158 138 208 243 364 304 450 33 47 63 92 66
100 4 8 13 22 20 30 12 13 37 49 133 195 40 60 118 170 141 198 14 18 54 73
88 122 34 50 91 133 128 185 36 52 98 142 138 200 123 181 140 205 148 211 5
4 14 16 20 27 34 61 471 685 540 772 62 77 77 100 77 111 0 8 -21 50 -46 94
-24 44 -52 95 -60 113 -11 25 -20 33 -37 30 -12 -2 -23 -12 -25 -22 -2 -11
-38 -71 -80 -135 -202 -310 -240 -370 -271 -421 -32 -54 -60 -97 -141 -215
-41 -61 -153 -232 -232 -358 -24 -38 -50 -79 -58 -92 -8 -12 -35 -54 -60 -93
-58 -91 -130 -201 -206 -317 -34 -52 -64 -100 -68 -107 -3 -7 -15 -26 -26 -43
-11 -16 -24 -39 -30 -50 -6 -11 -37 -60 -70 -110 -33 -49 -72 -112 -88 -138
-30 -53 -124 -201 -181 -285 -20 -29 -41 -61 -46 -70 -6 -9 -33 -50 -60 -90
-28 -41 -54 -81 -60 -90 -5 -10 -20 -31 -33 -49 -12 -18 -26 -40 -30 -50 -6
-17 -119 -193 -163 -255 -10 -15 -19 -30 -19 -34 0 -3 -13 -26 -30 -51 -16
-24 -30 -47 -30 -50 0 -3 -13 -22 -29 -42 -15 -20 -38 -54 -50 -76 -33 -61
-83 -137 -117 -180 l-30 -38 -52 66 c-31 38 -52 75 -52 89 0 15 33 72 80 139
91 130 328 481 410 604 91 137 109 163 168 245 46 63 151 219 207 308 29 46
241 349 287 411 25 33 121 172 209 301 21 30 56 80 78 110 22 30 48 69 57 85
9 17 24 39 34 50 19 20 48 63 150 215 104 156 130 194 195 285 75 105 174 247
195 280 8 13 25 36 38 52 12 15 57 75 99 132 41 57 84 106 94 108 25 7 24 21
-7 79 -68 125 -114 194 -129 194 -7 0 -32 -33 -55 -72 -24 -40 -63 -101 -86
-136 -24 -35 -44 -65 -44 -67 0 -3 -39 -62 -86 -132 -48 -71 -99 -149 -113
-175 -14 -25 -50 -80 -78 -122 -29 -42 -53 -78 -53 -80 0 -1 -34 -53 -75 -115
-41 -62 -75 -115 -75 -118 0 -3 -13 -22 -28 -42 -15 -20 -33 -47 -40 -61 -7
-14 -22 -39 -35 -57 -12 -17 -53 -81 -92 -143 -38 -61 -86 -133 -105 -160 -44
-62 -128 -190 -159 -244 -13 -22 -43 -70 -66 -106 -109 -166 -224 -345 -265
-411 -87 -141 -267 -421 -337 -525 -26 -40 -70 -107 -97 -150 -27 -44 -73
-116 -103 -161 -29 -45 -53 -86 -53 -92 0 -5 -3 -11 -8 -13 -4 -1 -40 -56 -80
-120 -40 -65 -77 -120 -83 -123 -5 -4 -9 -15 -9 -25 0 -37 -20 -30 -60 22 -22
29 -44 58 -49 64 -32 40 -33 55 -4 91 29 37 78 104 118 163 13 19 42 60 64 90
22 30 59 86 83 124 70 112 51 84 217 321 122 173 185 263 196 283 6 9 28 44
51 77 22 33 102 151 177 262 75 112 150 222 167 245 18 24 74 104 125 178 52
74 99 140 104 147 6 7 11 14 11 16 0 3 18 31 41 63 80 116 89 130 141 207 68
99 264 376 283 400 8 9 15 19 15 21 0 3 21 35 47 73 26 37 60 88 77 113 16 25
56 79 87 120 31 42 65 91 76 110 31 57 111 171 168 240 30 36 55 73 55 84 0
10 -13 38 -30 63 -16 24 -30 46 -30 47 0 4 -69 108 -76 115 -6 6 -44 -31 -44
-43 0 -6 -20 -42 -45 -79 -25 -38 -45 -71 -45 -73 0 -2 -26 -41 -57 -87 -32
-45 -67 -98 -77 -117 -11 -19 -45 -69 -76 -110 -31 -41 -59 -82 -63 -90 -4 -8
-15 -27 -25 -42 -9 -14 -30 -48 -46 -75 -16 -26 -66 -105 -112 -175 -46 -70
-84 -129 -84 -132 0 -3 -37 -59 -82 -126 -46 -67 -87 -129 -93 -138 -5 -9 -22
-35 -36 -57 -14 -22 -29 -47 -33 -55 -11 -24 -25 -45 -131 -205 -55 -82 -102
-154 -105 -160 -6 -11 -124 -193 -176 -270 -19 -28 -34 -54 -34 -59 0 -4 -13
-25 -30 -46 -16 -21 -30 -41 -30 -44 0 -8 -140 -224 -171 -266 -10 -14 -26
-38 -35 -55 -16 -30 -79 -127 -183 -285 -31 -47 -58 -89 -61 -95 -3 -5 -23
-37 -45 -70 -22 -33 -44 -67 -50 -76 -55 -89 -179 -284 -213 -337 -24 -37 -48
-77 -53 -89 -12 -33 -44 -28 -67 10 -12 17 -34 51 -51 74 l-30 42 67 91 c37
50 72 99 77 108 12 20 79 120 143 212 100 144 208 302 217 318 6 10 21 33 35
52 14 19 30 42 35 52 6 9 48 73 94 140 47 68 116 168 153 223 38 55 111 161
163 235 52 74 94 140 95 146 0 6 9 19 21 30 12 10 28 32 36 49 9 16 27 44 40
60 41 52 173 235 173 241 0 3 21 35 47 72 26 37 79 114 118 172 136 199 168
245 211 302 24 31 44 59 44 63 0 4 20 32 44 63 24 31 78 109 121 172 43 63 90
131 105 150 15 19 52 72 83 117 30 45 70 102 89 125 19 24 49 67 68 95 19 29
38 53 42 53 4 0 12 9 18 20 10 19 -6 60 -58 141 -9 15 -28 45 -42 68 -13 24
-30 40 -39 39 -8 -2 -34 -37 -59 -78 -24 -41 -83 -133 -130 -204 -48 -72 -89
-135 -92 -141 -6 -13 -48 -75 -95 -140 -20 -27 -48 -68 -62 -90 -78 -121 -98
-150 -105 -153 -5 -2 -8 -8 -8 -13 0 -6 -19 -38 -42 -72 -24 -34 -47 -70 -53
-79 -55 -94 -139 -227 -182 -290 -29 -43 -53 -80 -53 -83 0 -3 -20 -34 -45
-69 -25 -36 -45 -68 -45 -71 0 -3 -17 -29 -38 -58 -21 -29 -51 -74 -67 -102
-28 -49 -127 -202 -312 -482 -51 -77 -93 -145 -93 -149 0 -4 -39 -66 -87 -138
-94 -140 -96 -144 -130 -205 -29 -52 -62 -103 -112 -171 -22 -30 -54 -77 -71
-105 -17 -27 -57 -90 -89 -140 -33 -49 -84 -130 -114 -180 -116 -190 -174
-275 -187 -275 -11 0 -110 140 -110 156 0 7 6 19 13 26 6 7 19 23 27 35 8 11
42 59 75 105 71 99 112 160 138 208 11 19 32 51 48 71 16 20 29 41 29 47 0 5
7 15 15 22 9 7 30 34 47 59 17 25 121 179 230 341 176 260 313 459 393 570 14
19 40 56 58 81 17 26 46 66 63 90 17 24 50 73 75 109 25 36 54 79 65 95 12 17
54 80 94 140 41 61 99 144 130 185 72 97 150 208 150 215 0 3 40 59 90 125 49
65 123 167 163 227 40 59 88 128 106 153 17 25 39 56 49 70 9 14 48 68 87 120
39 52 88 121 109 153 21 31 41 57 44 57 4 0 18 16 31 35 29 44 25 65 -34 151
-25 36 -45 68 -45 72 -1 11 -49 67 -53 62 -2 -3 -21 -34 -42 -70 -50 -84 -108
-171 -162 -242 -24 -31 -43 -59 -43 -62 0 -5 -69 -111 -151 -234 -16 -23 -29
-44 -29 -46 0 -2 -33 -53 -73 -112 -207 -306 -326 -487 -376 -569 -55 -91 -54
-90 -136 -216 -38 -59 -88 -136 -109 -171 -44 -70 -217 -338 -247 -380 -10
-15 -19 -30 -19 -33 0 -3 -19 -34 -43 -68 -24 -34 -46 -69 -50 -77 -9 -19 -30
-51 -92 -142 -27 -40 -54 -80 -60 -90 -51 -85 -160 -257 -207 -325 -15 -23
-28 -44 -28 -47 0 -3 -12 -24 -27 -48 -16 -24 -32 -51 -38 -60 -5 -9 -40 -61
-76 -115 -36 -54 -88 -133 -115 -175 -27 -43 -69 -109 -93 -148 -25 -38 -50
-70 -57 -70 -21 0 -104 116 -104 145 0 15 12 44 28 64 15 20 32 44 37 53 6 9
32 49 60 90 27 40 54 81 60 90 19 32 150 221 175 252 14 17 30 39 35 48 20 33
176 259 232 337 78 108 115 160 203 291 41 61 110 159 153 218 73 100 153 214
187 267 32 49 110 162 149 215 22 30 48 66 58 80 23 34 137 193 228 318 41 56
75 104 75 106 0 6 73 113 186 271 133 188 131 184 179 255 52 77 104 150 145
205 16 22 40 56 54 75 13 19 47 60 76 90 l51 55 -17 30 c-21 37 -145 225 -148
225 -2 0 -10 -8 -19 -17z"/>
<path d="M6243 8928 c-34 -51 -85 -127 -114 -168 -93 -133 -154 -221 -164
-238 -6 -9 -33 -50 -60 -90 -28 -40 -55 -81 -60 -90 -12 -20 -141 -214 -172
-257 -43 -62 -458 -689 -462 -698 -2 -6 -30 -48 -62 -94 -33 -46 -59 -86 -59
-88 0 -3 -49 -77 -111 -165 -22 -32 -171 -257 -184 -279 -5 -9 -22 -32 -37
-52 -16 -20 -28 -39 -28 -42 0 -3 -23 -38 -50 -79 -28 -40 -99 -145 -157 -233
-58 -88 -163 -245 -232 -350 -69 -104 -128 -194 -130 -199 -2 -4 -24 -38 -49
-75 -25 -36 -77 -113 -115 -171 -38 -58 -88 -132 -110 -165 -136 -201 -387
-577 -387 -580 0 -1 -33 -52 -72 -111 -40 -60 -77 -117 -83 -126 -5 -9 -59
-90 -120 -180 -60 -89 -112 -167 -114 -171 -1 -5 -39 -61 -83 -125 -44 -64
-118 -177 -166 -250 -48 -73 -136 -208 -197 -299 -60 -91 -114 -173 -120 -182
-24 -40 -132 -199 -158 -234 -16 -20 -26 -44 -23 -52 5 -13 496 -15 4119 -15
l4113 0 25 28 c30 32 73 91 82 112 4 8 50 76 102 150 52 74 139 201 193 281
55 81 121 177 148 215 27 38 72 103 99 145 28 42 65 99 84 125 19 27 66 96
106 154 39 58 92 135 118 173 26 37 66 95 90 130 83 120 120 172 144 200 12
16 23 34 22 40 0 7 -20 39 -44 72 -44 59 -166 235 -195 280 -43 67 -197 294
-217 320 -36 46 -34 44 -215 311 -41 60 -109 161 -153 224 -43 63 -118 174
-167 245 -48 72 -104 153 -123 180 -20 28 -51 73 -69 100 -18 28 -41 57 -50
65 -16 13 -20 12 -35 -7 -47 -63 -311 -444 -452 -653 -137 -203 -197 -289
-230 -331 -16 -20 -29 -40 -29 -44 0 -4 -12 -24 -27 -44 -16 -20 -32 -44 -38
-53 -67 -112 -342 -505 -359 -511 -24 -10 -3292 -5 -3308 4 -5 3 15 41 44 85
169 249 268 397 268 401 0 3 12 22 28 42 15 20 32 45 39 56 46 76 91 146 115
180 16 22 85 126 155 230 69 105 158 237 197 295 38 58 105 157 147 220 42 63
285 430 541 815 256 385 510 768 564 850 202 304 494 735 533 788 23 29 41 59
41 65 0 9 -305 12 -1233 12 l-1233 0 -61 -92z"/>
</g>
</svg>
